<svg width="20" height="20" viewBox="0 0 20 20" fill="none" xmlns="http://www.w3.org/2000/svg">
<path d="M2.25626 14.5937C1.13959 12.7098 0.748993 10.483 1.1578 8.33139C1.5666 6.17982 2.74669 4.25145 4.47652 2.9083C6.20636 1.56516 8.36697 0.8996 10.5527 1.03658C12.7385 1.17357 14.7991 2.10367 16.3477 3.65227C17.8963 5.20088 18.8264 7.26149 18.9634 9.44727C19.1004 11.633 18.4348 13.7937 17.0917 15.5235C15.7486 17.2533 13.8202 18.4334 11.6686 18.8422C9.51705 19.251 7.29025 18.8604 5.40626 17.7437V17.7437L2.29376 18.625C2.16624 18.6623 2.03103 18.6646 1.90231 18.6317C1.77359 18.5987 1.6561 18.5318 1.56215 18.4379C1.4682 18.3439 1.40126 18.2264 1.36833 18.0977C1.33541 17.969 1.33771 17.8338 1.37501 17.7062L2.25626 14.5937Z" stroke="#7B4AE2" stroke-opacity="0.5" stroke-linecap="round" stroke-linejoin="round"/>
<path d="M12.2594 15.25C11.2726 15.2525 10.295 15.0599 9.38276 14.6834C8.47057 14.3069 7.64176 13.7539 6.94395 13.0561C6.24615 12.3583 5.69311 11.5295 5.3166 10.6173C4.9401 9.70506 4.74755 8.72746 4.75002 7.74062C4.7525 7.04605 5.03016 6.38078 5.52217 5.89052C6.01419 5.40027 6.68045 5.12499 7.37502 5.125V5.125C7.48962 5.12408 7.60234 5.15407 7.70133 5.21182C7.80032 5.26956 7.88191 5.35292 7.93752 5.45312L9.0344 7.36562C9.09963 7.48188 9.1331 7.61327 9.13146 7.74657C9.12981 7.87987 9.0931 8.01038 9.02502 8.125L8.14377 9.59687C8.59516 10.601 9.399 11.4049 10.4031 11.8562L11.875 10.975C11.9896 10.9069 12.1202 10.8702 12.2535 10.8686C12.3868 10.8669 12.5181 10.9004 12.6344 10.9656L14.5469 12.0625C14.6471 12.1181 14.7305 12.1997 14.7882 12.2987C14.8459 12.3977 14.8759 12.5104 14.875 12.625C14.8726 13.3188 14.5965 13.9837 14.1068 14.4751C13.6171 14.9666 12.9532 15.2451 12.2594 15.25V15.25Z" stroke="#7B4AE2" stroke-opacity="0.5" stroke-linecap="round" stroke-linejoin="round"/>
</svg>
